<svg xmlns="http://www.w3.org/2000/svg" viewBox="0 0 639.44 198.07"><defs><style>.cls-1{fill:#76a6d4;}.cls-2{fill:#f9ae00;}.cls-3{fill:#333;}</style></defs><title>アセット 1</title><g id="レイヤー_2" data-name="レイヤー 2"><g id="color"><path class="cls-1" d="M126.12,118.24,10.5,51.49A7,7,0,0,0,0,57.55V191.06a7,7,0,0,0,10.5,6.06l115.62-66.75A7,7,0,0,0,126.12,118.24Z"/><path class="cls-2" d="M89,36,28.29,1A7,7,0,0,0,17.79,7V89.19L89,48.1A7,7,0,0,0,89,36Z"/><path class="cls-3" d="M173.79,136.17V61.9h34.54a22.14,22.14,0,0,1,8,1.39,17.33,17.33,0,0,1,6.2,4,18,18,0,0,1,4,6.37A23.38,23.38,0,0,1,228,82.05a17.45,17.45,0,0,1-.64,4.75,18.69,18.69,0,0,1-1.75,4.26,16.31,16.31,0,0,1-2.6,3.47,11.74,11.74,0,0,1-3.2,2.32,17.65,17.65,0,0,1,4.57,2.62,18.53,18.53,0,0,1,3.76,4,19.55,19.55,0,0,1,2.56,5.13,18.79,18.79,0,0,1,1,6,24.44,24.44,0,0,1-1.75,9.64,19.37,19.37,0,0,1-4.64,6.71,19,19,0,0,1-6.61,4,22.49,22.49,0,0,1-7.59,1.31Zm11.74-43.36h22.13a7,7,0,0,0,3.11-.74,8.86,8.86,0,0,0,2.65-2A9.64,9.64,0,0,0,215.26,87a11.39,11.39,0,0,0,0-7.81A10.2,10.2,0,0,0,213.42,76,9.2,9.2,0,0,0,210.77,74a6.75,6.75,0,0,0-3.11-.77H185.53Zm24.36,32a8.46,8.46,0,0,0,3.36-.73,9.69,9.69,0,0,0,3.08-2.13,11,11,0,0,0,2.22-3.39,11.48,11.48,0,0,0,.85-4.56,12,12,0,0,0-.75-4.31,11.3,11.3,0,0,0-2-3.42,9,9,0,0,0-3-2.24,8.87,8.87,0,0,0-3.67-.79H185.53v21.57Z"/><path class="cls-3" d="M274.84,61.9h53.29V73.69H286.62V95.76h37.1V107.5h-37.1v28.67H274.84Z"/><path class="cls-3" d="M363.91,99a37.81,37.81,0,0,1,1.41-10.38,39.85,39.85,0,0,1,3.93-9.28,37.06,37.06,0,0,1,6.12-7.84,39.72,39.72,0,0,1,7.92-6,39.76,39.76,0,0,1,39.5,0,39.72,39.72,0,0,1,7.92,6,37.82,37.82,0,0,1,6.14,7.84,38.29,38.29,0,0,1,4,9.28,38.88,38.88,0,0,1,0,20.75,38.36,38.36,0,0,1-4,9.29,37.82,37.82,0,0,1-6.14,7.84,40.19,40.19,0,0,1-7.92,6.06,38,38,0,0,1-9.36,3.9,40.2,40.2,0,0,1-20.81,0,38.1,38.1,0,0,1-9.33-3.9,40.19,40.19,0,0,1-7.92-6.06,37.06,37.06,0,0,1-6.12-7.84,39.92,39.92,0,0,1-3.93-9.29A37.8,37.8,0,0,1,363.91,99Zm13.24,0a27.68,27.68,0,0,0,2,10.68,27.31,27.31,0,0,0,5.56,8.58A25.76,25.76,0,0,0,393,124,24.62,24.62,0,0,0,403,126.1,24.88,24.88,0,0,0,413.19,124a25.61,25.61,0,0,0,8.25-5.7,27.06,27.06,0,0,0,5.53-8.58,29.3,29.3,0,0,0,0-21.38,26.82,26.82,0,0,0-5.53-8.6,25.48,25.48,0,0,0-8.25-5.71A24.88,24.88,0,0,0,403,72,24.62,24.62,0,0,0,393,74.05a25.63,25.63,0,0,0-8.21,5.71,27.06,27.06,0,0,0-5.56,8.6A27.89,27.89,0,0,0,377.15,99.06Z"/><path class="cls-3" d="M511.85,110.34H496.11v25.83H482.49V61.9h32.1A29.8,29.8,0,0,1,525,63.64a24.24,24.24,0,0,1,8.17,5,22.08,22.08,0,0,1,5.36,7.67,24.85,24.85,0,0,1,1.91,9.89,26.72,26.72,0,0,1-1,7.56,22.67,22.67,0,0,1-3,6.36,21.78,21.78,0,0,1-4.71,5,24.29,24.29,0,0,1-6.15,3.44l16.57,27.69H526.45Zm2.3-11.74a13.6,13.6,0,0,0,5-.9,12.1,12.1,0,0,0,4-2.52,11.64,11.64,0,0,0,2.68-3.9,13.66,13.66,0,0,0,0-10.16,12.32,12.32,0,0,0-2.68-4,12,12,0,0,0-4-2.59,13.54,13.54,0,0,0-5-.93H496.11v25Z"/><path class="cls-3" d="M585.57,61.9H639V73.69H597.36V93.57h42.08v11.69H597.36v19.17h42.08v11.74H585.57Z"/></g></g></svg>